<svg xmlns="http://www.w3.org/2000/svg" viewBox="0 0 960 16" width="960" height="16" preserveAspectRatio="none">
  <!-- Top line -->
  <line x1="0" y1="2" x2="960" y2="2" stroke="#ff00ff" stroke-width="2"/>
  <!-- Zigzag middle -->
  <polyline
    points="0,8 12,4 24,12 36,4 48,12 60,4 72,12 84,4 96,12 108,4 120,12 132,4 144,12 156,4 168,12 180,4 192,12 204,4 216,12 228,4 240,12 252,4 264,12 276,4 288,12 300,4 312,12 324,4 336,12 348,4 360,12 372,4 384,12 396,4 408,12 420,4 432,12 444,4 456,12 468,4 480,12 492,4 504,12 516,4 528,12 540,4 552,12 564,4 576,12 588,4 600,12 612,4 624,12 636,4 648,12 660,4 672,12 684,4 696,12 708,4 720,12 732,4 744,12 756,4 768,12 780,4 792,12 804,4 816,12 828,4 840,12 852,4 864,12 876,4 888,12 900,4 912,12 924,4 936,12 948,4 960,8"
    fill="none"
    stroke="#00cccc"
    stroke-width="2"
  />
  <!-- Bottom line -->
  <line x1="0" y1="14" x2="960" y2="14" stroke="#ff00ff" stroke-width="2"/>
</svg>
